<svg xmlns="http://www.w3.org/2000/svg" version="1.0" preserveAspectRatio="xMidYMid meet" viewBox="264.8 654 1467.2 187.91">

<g transform="translate(0.000000,1500.000000) scale(0.100000,-0.100000)" fill="#000000" stroke="none">
<path d="M11074 8445 c-242 -44 -419 -177 -532 -400 -154 -307 -162 -737 -18 -1040 97 -204 222 -317 430 -387 83 -29 105 -32 246 -36 133 -3 168 -1 242 17 248 59 407 224 476 495 l20 77 -70 -3 -71 -3 -14 -55 c-60 -242 -238 -369 -515 -370 -105 0 -175 14 -246 48 -193 94 -312 383 -312 757 0 223 30 378 101 522 67 136 161 215 287 242 68 14 206 14 274 0 180 -38 308 -171 357 -370 l16 -69 78 0 77 0 -2 283 -3 282 -67 3 -66 3 -27 -81 -27 -80 -51 45 c-68 60 -176 112 -257 125 -87 13 -239 11 -326 -5z"/>
<path d="M12825 8443 c-5 -14 -555 -1538 -597 -1654 -8 -23 -20 -30 -76 -43 -37 -10 -84 -21 -104 -27 l-38 -10 0 -54 0 -55 300 0 300 0 0 55 0 54 -37 10 c-21 5 -67 17 -103 26 -36 9 -67 19 -69 21 -2 2 31 105 74 229 l77 225 341 -2 340 -3 74 -220 c40 -121 73 -223 73 -226 0 -4 -44 -18 -97 -31 l-98 -24 -3 -57 -3 -57 351 0 350 0 0 55 0 54 -37 10 c-21 5 -68 18 -105 27 l-66 18 -272 765 c-150 421 -286 803 -302 849 l-30 82 -118 0 c-103 0 -119 -2 -125 -17z m224 -644 c72 -229 131 -420 131 -423 0 -3 -128 -6 -285 -6 -169 0 -285 4 -285 9 0 7 260 772 285 840 3 8 9 11 14 5 5 -5 67 -196 140 -425z"/>
<path d="M15970 7613 l-305 -847 -50 -14 c-27 -7 -74 -20 -102 -28 l-53 -15 0 -54 0 -55 295 0 295 0 0 55 0 54 -48 14 c-26 8 -73 20 -105 27 -45 10 -56 17 -52 29 3 9 38 111 78 226 l72 210 342 3 341 2 73 -217 c39 -120 74 -223 76 -229 2 -7 -24 -18 -64 -28 -37 -9 -85 -21 -105 -27 l-38 -10 0 -54 0 -55 350 0 350 0 0 55 0 54 -52 15 c-29 8 -75 21 -102 28 l-50 13 -300 847 -301 848 -120 0 -120 0 -305 -847z m522 190 l135 -428 -285 -3 c-157 -1 -286 -1 -288 1 -6 5 289 857 296 857 4 0 68 -192 142 -427z"/>
<path d="M6717 8433 c-4 -3 -7 -29 -7 -58 l0 -51 103 -25 102 -25 3 -756 2 -756 -67 -16 c-38 -9 -85 -21 -105 -27 l-38 -10 0 -54 0 -55 458 0 c559 0 633 9 800 91 174 85 312 262 385 494 35 113 49 220 48 370 -2 289 -94 524 -269 687 -126 115 -267 170 -485 188 -128 11 -920 13 -930 3z m990 -168 c94 -22 152 -53 214 -115 128 -127 189 -337 189 -650 0 -426 -115 -656 -364 -727 -36 -11 -126 -16 -308 -20 l-258 -6 0 767 0 766 233 0 c168 0 249 -4 294 -15z"/>
<path d="M8650 8382 l0 -57 118 -26 117 -25 3 -755 2 -756 -102 -22 c-57 -12 -111 -25 -120 -27 -14 -4 -18 -17 -18 -60 l0 -54 745 0 745 0 0 285 0 285 -74 0 -73 0 -33 -172 c-18 -95 -35 -189 -39 -208 l-7 -35 -384 0 -385 0 0 355 0 355 211 3 211 2 21 -123 c12 -68 22 -126 22 -130 0 -4 29 -7 65 -7 l65 0 0 335 0 335 -63 0 -64 0 -21 -123 c-12 -68 -22 -126 -22 -130 0 -4 -97 -7 -215 -7 l-215 0 2 333 3 332 362 3 363 2 5 -22 c3 -13 21 -99 40 -191 19 -92 37 -172 40 -177 3 -6 33 -10 66 -10 l59 0 0 275 0 275 -715 0 -715 0 0 -58z"/>
<path d="M13990 8383 l0 -59 103 -25 102 -25 3 -756 2 -756 -67 -16 c-38 -9 -85 -21 -105 -27 l-38 -10 0 -54 0 -55 355 0 355 0 0 54 c0 43 -4 56 -17 60 -10 2 -64 15 -120 27 l-103 22 0 278 0 277 248 4 c238 4 250 5 326 31 141 49 225 122 299 257 94 173 98 352 11 528 -48 97 -137 193 -218 232 -127 62 -136 63 -658 67 l-478 5 0 -59z m910 -121 c110 -43 199 -172 221 -322 28 -179 -62 -382 -193 -441 -49 -22 -68 -24 -260 -27 l-208 -4 0 412 0 412 193 -4 c168 -4 199 -7 247 -26z"/>
<path d="M2946 8280 c-42 -13 -90 -49 -117 -88 l-24 -36 -5 -571 c-3 -394 -8 -576 -16 -586 -6 -8 -39 -50 -74 -94 l-62 -79 5 -58 c6 -67 31 -108 81 -132 30 -14 109 -16 729 -16 l695 0 4 103 c2 77 8 112 23 142 18 35 97 111 165 157 24 16 -13 17 -662 17 l-688 1 0 520 0 520 820 0 820 0 0 -110 c0 -60 3 -110 8 -110 4 0 25 7 47 15 22 8 64 14 94 15 l53 0 -4 123 c-4 100 -8 129 -26 164 -24 46 -69 84 -121 102 -41 13 -1699 14 -1745 1z m1092 -1462 c2 -10 -8 -29 -22 -43 -25 -25 -27 -25 -197 -25 -164 0 -174 1 -196 22 -13 12 -23 32 -23 45 l0 23 217 -2 c197 -3 218 -5 221 -20z"/>
<path d="M4705 7753 c-96 -50 -114 -96 -115 -285 0 -142 1 -147 25 -176 23 -28 25 -38 25 -130 l0 -100 -91 -52 c-108 -62 -244 -161 -258 -189 -6 -11 -11 -60 -11 -110 l0 -91 233 0 232 0 22 105 c22 105 22 106 3 138 -37 60 -22 97 40 97 60 0 77 -39 44 -102 -17 -32 -16 -44 12 -170 l16 -68 235 0 235 0 -4 90 c-3 70 -9 96 -24 118 -26 35 -157 129 -256 184 l-78 43 0 108 c0 94 3 112 20 134 18 23 20 41 20 172 0 121 -4 153 -19 186 -37 79 -102 115 -208 115 -42 -1 -80 -7 -98 -17z"/>
<path d="M5350 7759 c-14 -5 -36 -20 -48 -32 -46 -42 -52 -68 -52 -210 0 -119 2 -137 20 -160 17 -21 20 -40 20 -115 l0 -90 -56 -32 -56 -31 74 -49 c140 -92 193 -152 212 -242 l6 -28 215 0 215 0 0 79 c0 44 -3 87 -7 96 -8 23 -140 120 -231 170 l-72 40 0 88 c0 74 3 93 20 114 18 23 20 41 20 155 0 109 -3 135 -20 168 -32 62 -72 85 -160 87 -41 2 -86 -2 -100 -8z"/>
</g>
</svg>